<?xml version="1.0" encoding="UTF-8" standalone="no"?><!DOCTYPE svg PUBLIC "-//W3C//DTD SVG 1.1//EN" "http://www.w3.org/Graphics/SVG/1.1/DTD/svg11.dtd"><svg width="100%" height="100%" viewBox="0 0 246 246" version="1.1" xmlns="http://www.w3.org/2000/svg" xmlns:xlink="http://www.w3.org/1999/xlink" xml:space="preserve" xmlns:serif="http://www.serif.com/" style="fill-rule:evenodd;clip-rule:evenodd;stroke-linejoin:round;stroke-miterlimit:2;"><g id="Logo"><path d="M16.459,61.45l106.408,61.377l0.026,-122.827l-106.434,61.45Z" style="fill:#bed030;fill-rule:nonzero;"/><path d="M122.848,245.671l106.433,-61.448l-106.406,-61.379l-0.027,122.827Z" style="fill:#b762a3;fill-rule:nonzero;"/><path d="M229.301,184.326l-0,-122.899l-106.359,61.462l106.359,61.437Z" style="fill:#0899c0;fill-rule:nonzero;"/><path d="M122.916,122.842l106.385,-61.392l-106.434,-61.449l0.049,122.841Z" style="fill:#2db486;fill-rule:nonzero;"/><path d="M16.482,184.304l106.435,61.448l-0.049,-122.841l-106.386,61.393Z" style="fill:#ee596f;fill-rule:nonzero;"/><path d="M16.46,184.326l106.36,-61.462l-106.36,-61.437l-0,122.899Z" style="fill:#f3de45;fill-rule:nonzero;"/><path d="M122.885,122.931l71.001,0l19.954,-52.503l-90.955,52.503Z" style="fill:#10b0c2;fill-rule:nonzero;"/><path d="M122.848,122.931l70.925,0l20.028,52.506l-90.953,-52.506Z" style="fill:#3a7ab8;fill-rule:nonzero;"/><path d="M122.848,122.931l-71.002,0l-19.953,-52.503l90.955,52.503Z" style="fill:#f1ed82;fill-rule:nonzero;"/><path d="M122.77,122.931l-70.925,0l-20.029,52.506l90.954,-52.506Z" style="fill:#fcb45a;fill-rule:nonzero;"/><path d="M122.924,61.697l-0.028,61.302l53.068,-30.781l0.038,-61.465l-53.078,30.944Z" style="fill:#46b89c;fill-rule:nonzero;"/><path d="M122.924,184.043l-0.028,-61.301l53.068,30.778l0.038,61.466l-53.078,-30.943Z" style="fill:#cc72a9;fill-rule:nonzero;"/><path d="M122.848,61.62l0.028,61.302l-53.07,-30.78l-0.037,-61.466l53.079,30.944Z" style="fill:#d5dd52;fill-rule:nonzero;"/><path d="M122.848,184.121l0.028,-61.303l-53.07,30.779l-0.037,61.466l53.079,-30.942Z" style="fill:#f08292;fill-rule:nonzero;"/><path d="M229.301,122.943l-0,-30.648l-35.414,30.648l35.414,0Z" style="fill:#1775a4;fill-rule:nonzero;"/><path d="M122.94,0l-53.171,30.65l53.171,-0l0,-30.65Z" style="fill:#64b241;fill-rule:nonzero;"/><path d="M69.768,215.112l53.172,30.648l0,-30.648l-53.172,-0Z" style="fill:#df263a;fill-rule:nonzero;"/><path d="M122.924,0l-0,30.65l53.04,-0l-53.04,-30.65Z" style="fill:#188a70;fill-rule:nonzero;"/><path d="M122.924,215.112l-0,30.648l53.04,-30.648l-53.04,-0Z" style="fill:#a65498;fill-rule:nonzero;"/><path d="M229.301,122.943l-0,30.65l-35.414,-30.65l35.414,0Z" style="fill:#1b86b3;fill-rule:nonzero;"/><path d="M16.46,122.983l35.308,-0l-35.308,-30.65l-0,30.65Z" style="fill:#e7b527;fill-rule:nonzero;"/><path d="M16.46,122.983l-0,30.647l35.308,-30.647l-35.308,-0Z" style="fill:#f6c823;fill-rule:nonzero;"/><path d="M175.964,64.108l0,28.11l37.804,-21.782l-37.804,-6.328Z" style="fill:#19987a;fill-rule:nonzero;"/><path d="M175.964,181.794l0,-28.302l37.804,21.974l-37.804,6.328Z" style="fill:#aa417f;fill-rule:nonzero;"/><path d="M69.881,64.108l-0,28.11l-37.804,-21.782l37.804,-6.328Z" style="fill:#b1c82e;fill-rule:nonzero;"/><path d="M69.692,181.717l-0,-28.109l-37.804,21.782l37.804,6.327Z" style="fill:#e5442f;fill-rule:nonzero;"/><path d="M158.464,61.247l-71.168,0l-35.583,61.632l35.583,61.634l71.168,-0l35.582,-61.634l-35.582,-61.632Z" style="fill:#fff;fill-rule:nonzero;"/><path id="B" d="M107.056,128.478l19.198,0c5.132,0 12.45,3.137 12.45,9.124c0,6.273 -7.318,7.984 -12.45,7.984l-19.198,-0l-0,-17.108Zm-0,-26.326l19.198,0c7.983,0 10.454,5.132 10.454,8.174c0,3.801 -2.566,7.128 -10.454,7.128l-19.198,-0l-0,-15.302Zm19.198,-11.405l-31.553,0l-0,66.528l31.553,0c13.781,0 24.9,-4.752 24.9,-19.578c0,-4.182 -2.851,-12.45 -10.644,-14.826c6.178,-2.756 8.649,-7.698 8.649,-12.83c-0,-13.401 -9.79,-19.294 -22.905,-19.294Z" style="fill:#080c11;fill-rule:nonzero;"/></g></svg>